<svg width="70" height="71" viewBox="0 0 70 71" fill="none" xmlns="http://www.w3.org/2000/svg">
<path fill-rule="evenodd" clip-rule="evenodd" d="M31.8605 0.082877C25.0964 0.745501 18.8448 3.23884 13.3635 7.45998C10.6942 9.51554 7.22775 13.3787 5.22453 16.53C4.3594 17.891 2.6753 21.3397 2.072 22.9856C1.39746 24.826 0.678518 27.6385 0.324735 29.8208C-0.108245 32.4919 -0.108245 37.5632 0.324735 40.2342C0.936936 44.0102 1.90539 47.0627 3.56304 50.4422C5.37416 54.1341 7.25735 56.7512 10.273 59.767C13.2888 62.7826 15.9059 64.6658 19.5978 66.477C22.9773 68.1346 26.0298 69.1031 29.8057 69.7153C32.4768 70.1482 37.5481 70.1482 40.2192 69.7153C43.9952 69.1031 47.0477 68.1346 50.4271 66.477C54.1191 64.6658 56.7362 62.7826 59.7519 59.767C62.7676 56.7512 64.6508 54.1341 66.4619 50.4422C67.6648 47.9898 68.2699 46.3826 68.918 43.918C69.781 40.6359 70 38.8367 70 35.0275C70 31.2184 69.781 29.4192 68.918 26.137C68.2699 23.6725 67.6648 22.0653 66.4619 19.6129C64.6508 15.9209 62.7676 13.3038 59.7519 10.2881C56.7362 7.2724 54.1191 5.38921 50.4271 3.5781C47.051 1.92195 43.938 0.933902 40.2877 0.359655C38.2737 0.0428674 33.7764 -0.104839 31.8605 0.082877ZM39.4575 6.04183C45.6088 7.00316 51.2473 9.88261 55.7023 14.3377C60.193 18.8283 63.0349 24.422 64.0215 30.7114C64.3471 32.7882 64.3471 37.2668 64.0215 39.3436C63.0349 45.6331 60.193 51.2267 55.7023 55.7174C51.2117 60.2081 45.618 63.05 39.3286 64.0365C37.2518 64.3622 32.7732 64.3622 30.6964 64.0365C24.4069 63.05 18.8133 60.2081 14.3226 55.7174C9.83194 51.2267 6.99003 45.6331 6.00349 39.3436C5.67779 37.2668 5.67779 32.7882 6.00349 30.7114C7.66087 20.1447 14.8648 11.2714 24.8046 7.55384C26.5924 6.88505 29.4039 6.18105 31.0389 5.99251C31.7548 5.90989 32.5256 5.81644 32.7517 5.78465C33.6123 5.66407 38.1545 5.83822 39.4575 6.04183ZM51.0437 20.9935C50.7342 21.1258 46.813 24.948 39.9823 31.7752L29.4003 42.3517L24.4991 37.4739C21.8034 34.7912 19.382 32.4829 19.1183 32.3446C18.505 32.023 17.1556 32.0069 16.5805 32.3144C15.5999 32.8388 14.9892 33.7896 14.9737 34.8161C14.9541 36.1116 14.9193 36.0697 21.4298 42.6018C25.4488 46.6343 27.7359 48.83 28.1021 49.0074C28.83 49.3603 29.9274 49.3626 30.5991 49.0126C31.2442 48.6764 54.499 25.3926 54.8084 24.7733C55.2935 23.8018 54.9957 22.2715 54.1724 21.5035C53.423 20.8045 52.02 20.5757 51.0437 20.9935Z" fill="#55CF97"/>
</svg>
