<?xml version="1.0" encoding="UTF-8"?>
<!DOCTYPE svg PUBLIC "-//W3C//DTD SVG 1.1//EN" "http://www.w3.org/Graphics/SVG/1.1/DTD/svg11.dtd">
<!-- Creator: CorelDRAW X7 -->
<svg xmlns="http://www.w3.org/2000/svg" xml:space="preserve" width="221px" height="94px" version="1.1" style="shape-rendering:geometricPrecision; text-rendering:geometricPrecision; image-rendering:optimizeQuality; fill-rule:evenodd; clip-rule:evenodd"
viewBox="0 0 221 94"
 xmlns:xlink="http://www.w3.org/1999/xlink">
 <defs>
  <style type="text/css">
   <![CDATA[
    .fil1 {fill:#2B2A29}
    .fil0 {fill:#E31E24}
   ]]>
  </style>
 </defs>
 <g id="Слой_x0020_1">
  <metadata id="CorelCorpID_0Corel-Layer"/>
  <g id="_827229280">
   <g>
    <path class="fil0" d="M23 72c-11,0 -18,-4 -21,-13 -1,-4 -2,-7 -2,-11 0,-6 0,-18 0,-24 0,-4 1,-7 2,-11 3,-9 10,-13 21,-13 21,0 43,0 65,0 10,0 17,4 20,13 1,2 2,4 2,6l-17 0c-1,-4 -4,-7 -9,-7 -19,0 -38,0 -57,0 -9,0 -11,8 -11,13 0,6 0,17 0,22 0,5 2,13 11,13 19,0 38,0 57,0 5,0 7,-3 9,-6l17 0c-2,12 -10,18 -22,18 -22,0 -44,0 -65,0z"/>
    <path class="fil0" d="M135 72c-11,0 -18,-5 -21,-13 -1,-4 -2,-7 -2,-11l0 -48 15 0 0 49c0,3 2,6 4,8 2,2 4,3 8,3l82 0 0 12 -86 0z"/>
   </g>
   <path class="fil1" d="M122 92l-1 0 0 -5 -2 0 0 1c0,2 0,3 0,3 -1,0 -1,1 -2,1 0,0 0,0 0,0 0,0 -1,0 -1,0l0 -2c0,0 1,0 1,0 0,0 0,0 0,0 0,0 0,-1 0,-1l0 -1 0 -2 5 0 0 6zm10 0l-1 0 0 -1c-1,0 -1,0 -1,0 0,1 -1,1 -1,1 -1,0 -2,-1 -2,-1 0,0 -1,-1 -1,-1 0,-1 1,-1 1,-1 1,-1 1,-1 2,-1l1 0 0 0 0 0c0,-1 0,-1 0,-1 0,0 -1,0 -1,0 0,0 -1,0 -1,0 0,0 0,0 -1,0l0 -1c1,0 1,0 1,0 1,-1 1,-1 1,-1 1,0 2,1 3,1 0,1 0,1 0,2l0 4zm-2 -3l0 0 0 0c0,0 -1,0 -1,0 -1,0 -1,0 -1,1 0,0 0,0 0,0 0,0 1,1 1,1 0,0 1,-1 1,-1 0,0 0,0 0,-1zm13 0c0,1 -1,1 -1,2 -1,0 -2,1 -2,1 -2,0 -3,-1 -3,-2 -1,0 -1,-2 -1,-3 0,-1 0,-2 1,-3 0,0 1,-1 1,-1 1,0 1,0 2,0 1,0 2,0 2,-1l0 2c0,0 0,0 0,0 -1,0 -1,0 -1,0 0,0 -1,0 -1,0 0,0 -1,0 -1,0 0,0 -1,1 -1,1 0,0 0,1 0,1l0 1 0 0c0,0 0,-1 0,-1 1,0 1,0 2,0 1,0 1,0 2,0 0,1 1,2 1,3zm-2 0c0,-1 0,-1 0,-2 -1,0 -1,0 -1,0 -1,0 -1,0 -2,0 0,1 0,1 0,2 0,0 0,1 0,1 1,0 1,1 2,1 0,0 0,-1 1,-1 0,0 0,-1 0,-1zm12 0c0,1 -1,1 -1,2 -1,0 -1,1 -2,1 -1,0 -2,-1 -3,-1 0,-1 -1,-1 -1,-2 0,-1 1,-2 1,-3 1,0 2,-1 3,-1 1,0 1,1 2,1 0,1 1,2 1,3zm-2 0c0,-1 0,-2 0,-2 -1,0 -1,0 -1,0 -1,0 -1,0 -1,0 -1,0 -1,1 -1,2 0,0 0,1 1,1 0,0 0,1 1,1 0,0 0,-1 1,-1 0,0 0,-1 0,-1zm12 0c0,1 0,1 -1,2 0,0 -1,1 -2,1 0,0 -1,0 -1,-1 0,0 0,0 -1,0l0 1 0 2 -1 0 0 -8 1 0 0 1c0,-1 1,-1 1,-1 0,0 1,-1 1,-1 1,0 2,1 2,1 1,1 1,1 1,3zm-2 0c0,-1 0,-2 0,-2 -1,0 -1,0 -1,0 -1,0 -1,0 -1,0 0,0 -1,1 -1,2 0,0 1,1 1,1 0,0 0,0 1,0 0,0 0,0 1,0 0,0 0,-1 0,-1zm11 3l-1 0 0 -1c0,0 -1,0 -1,0 0,1 -1,1 -1,1 -1,0 -1,-1 -2,-1 0,0 0,-1 0,-1 0,-1 0,-1 0,-1 1,-1 1,-1 3,-1l1 0 0 0 0 0c0,-1 -1,-1 -1,-1 0,0 0,0 -1,0 0,0 0,0 -1,0 0,0 0,0 -1,0l0 -1c1,0 1,0 1,0 1,-1 1,-1 2,-1 1,0 1,1 2,1 0,1 0,1 0,2l0 4zm-1 -3l0 0 -1 0c0,0 -1,0 -1,0 -1,0 -1,0 -1,1 0,0 0,0 0,0 1,0 1,1 1,1 1,0 1,-1 1,-1 0,0 1,0 1,-1zm10 -2l-1 0 0 5 -2 0 0 -5 -2 0 0 -1 5 0 0 1zm10 2c0,1 0,1 -1,2 0,0 -1,1 -2,1 -1,0 -2,-1 -2,-1 -1,-1 -1,-1 -1,-2 0,-1 0,-2 1,-3 0,0 1,-1 2,-1 1,0 2,1 2,1 1,1 1,2 1,3zm-1 0c0,-1 -1,-2 -1,-2 0,0 0,0 -1,0 0,0 -1,0 -1,0 0,0 0,1 0,2 0,0 0,1 0,1 0,0 1,1 1,1 1,0 1,-1 1,-1 0,0 1,-1 1,-1zm11 0c0,1 0,1 0,2 -1,0 -2,1 -2,1 -1,0 -1,0 -1,-1 -1,0 -1,0 -1,0l0 1 0 2 -2 0 0 -8 2 0 0 1c0,-1 0,-1 1,-1 0,0 0,-1 1,-1 1,0 1,1 2,1 0,1 0,1 0,3zm-1 0c0,-1 0,-2 -1,-2 0,0 0,0 -1,0 0,0 0,0 -1,0 0,0 0,1 0,2 0,0 0,1 0,1 1,0 1,0 1,0 1,0 1,0 1,0 1,0 1,-1 1,-1zm11 3l-1 0 0 -4 0 -1 -3 5 -1 0 0 -6 1 0 0 3 0 1 3 -4 1 0 0 6zm10 0l-2 0 0 -3 0 0 -1 3 -2 0 1 -3c0,0 -1,0 -1,-1 0,0 0,0 0,-1 0,0 0,-1 0,-1 1,0 1,0 2,0l3 0 0 6zm-2 -4l0 -1 -1 0c0,0 0,0 0,0 0,0 -1,0 -1,0 0,1 1,1 1,1 0,0 0,0 0,0l1 0z"/>
   <path class="fil1" d="M8 92l-2 0 0 -4 0 -1 0 0 0 1 -1 4 -2 0 -1 -4 0 -1 0 0 0 1 0 4 -2 0 0 -6 2 0 1 3 1 1 0 0 0 -1 1 -3 3 0 0 6zm9 -3l-4 0c0,0 0,1 1,1 0,0 0,1 1,1 0,0 1,-1 1,-1 0,0 1,0 1,0l0 1c0,0 -1,0 -1,1 0,0 -1,0 -1,0 -1,0 -2,-1 -2,-1 -1,-1 -1,-1 -1,-2 0,-1 0,-2 1,-3 0,0 1,-1 2,-1 1,0 1,1 2,1 0,1 0,2 0,3l0 0zm-1 -1c0,-1 0,-1 -1,-1 0,0 0,0 0,0 -1,0 -1,0 -1,0 -1,0 -1,1 -1,1l3 0zm12 5l-2 0 0 -1 -4 0 0 1 -1 0 0 -3 0 0c1,0 1,0 1,-1 0,0 0,-1 0,-2l0 -1 5 0 0 4 1 0 0 3zm-3 -3l0 -3 -1 0 0 1c0,0 0,1 -1,1 0,1 0,1 0,1l2 0zm12 2l-1 0 0 -4 0 -1 -3 5 -1 0 0 -6 1 0 0 3 0 1 3 -4 1 0 0 6zm11 1l-1 0 0 -1 -5 0 0 -6 1 0 0 4 3 0 0 -4 1 0 0 4 1 0 0 3zm10 -1l-2 0 0 -4 0 -1 -2 5 -2 0 0 -6 2 0 0 3 0 1 2 -4 2 0 0 6zm10 0l-2 0 0 -3 -2 0 0 3 -2 0 0 -6 2 0 0 2 2 0 0 -2 2 0 0 6zm9 -1c-1,0 -1,1 -1,1 0,0 -1,0 -1,0 -1,0 -2,-1 -2,-1 -1,-1 -1,-2 -1,-3 0,0 0,-1 1,-2 0,0 1,-1 2,-1 0,0 1,0 1,0 0,0 0,1 1,1l-1 1c0,0 0,0 -1,0 0,0 -1,0 -1,0 0,0 0,1 0,2 0,0 0,1 0,1 0,0 1,1 1,1 1,0 1,-1 1,-1 0,0 0,0 1,0l0 1zm9 1l-2 0 -2 -3 0 0 0 3 -2 0 0 -6 2 0 0 2 0 0 2 -2 2 0 -2 2 2 4zm9 0l-2 0 0 -1c0,0 0,0 0,0 -1,1 -1,1 -2,1 0,0 -1,-1 -1,-1 -1,0 -1,-1 -1,-1 0,-1 0,-1 1,-1 0,-1 1,-1 2,-1l1 0 0 0 0 0c0,-1 0,-1 0,-1 -1,0 -1,0 -1,0 0,0 -1,0 -1,0 0,0 -1,0 -1,0l0 -1c0,0 1,0 1,0 0,-1 1,-1 1,-1 1,0 2,1 2,1 1,1 1,1 1,2l0 4zm-2 -3l0 0 0 0c-1,0 -1,0 -1,0 -1,0 -1,0 -1,1 0,0 0,0 0,0 0,1 1,1 1,1 0,0 1,-1 1,-1 0,0 0,0 0,-1zm11 3l-1 0 0 -3 -1 0 -1 3 -2 0 1 -3c0,0 0,0 -1,-1 0,0 0,0 0,-1 0,0 0,-1 1,-1 0,0 1,0 1,0l3 0 0 6zm-1 -4l0 -1 -1 0c-1,0 -1,0 -1,0 0,0 0,0 0,0 0,1 0,1 0,1 0,0 0,0 1,0l1 0z"/>
  </g>
 </g>
</svg>
